<svg width="58" height="47" viewBox="0 0 58 47" fill="none" xmlns="http://www.w3.org/2000/svg">
<path d="M39.3333 8.07933C39.3333 9.68315 38.7 11.2235 37.5688 12.363C34.9651 14.9869 32.44 17.7228 29.7389 20.2515C29.12 20.8227 28.1379 20.8019 27.5453 20.2048L19.764 12.363C17.412 9.99267 17.412 6.166 19.764 3.79571C22.1391 1.40211 26.0085 1.40211 28.3835 3.79571L28.6664 4.08072L28.9491 3.79587C30.088 2.64763 31.6389 2 33.2589 2C34.8792 2 36.4301 2.64757 37.5688 3.79571C38.7 4.93528 39.3333 6.4756 39.3333 8.07933Z" stroke="currentColor" stroke-width="4" stroke-linejoin="round"/>
<path d="M44.6667 44.6667L54.8649 34.4686C55.1649 34.1686 55.3334 33.7616 55.3334 33.3374V19.3334C55.3334 17.1242 53.5425 15.3334 51.3334 15.3334C49.1243 15.3334 47.3334 17.1242 47.3334 19.3334V31.3334" stroke="currentColor" stroke-width="4" stroke-linecap="round" stroke-linejoin="round"/>
<path d="M44.6666 34L46.9549 31.7117C47.1973 31.4693 47.3333 31.1408 47.3333 30.7984C47.3333 30.309 47.0567 29.8618 46.6191 29.6429L45.4381 29.0525C43.385 28.0258 40.905 28.4282 39.2818 30.0514L36.8954 32.4378C35.8951 33.4381 35.3333 34.7946 35.3333 36.209V44.6666" stroke="currentColor" stroke-width="4" stroke-linecap="round" stroke-linejoin="round"/>
<path d="M12.6667 44.6667L2.46864 34.4686C2.16856 34.1686 2 33.7616 2 33.3374V19.3334C2 17.1242 3.79085 15.3334 6 15.3334C8.20915 15.3334 10 17.1242 10 19.3334V31.3334" stroke="currentColor" stroke-width="4" stroke-linecap="round" stroke-linejoin="round"/>
<path d="M12.6667 34L10.3783 31.7117C10.1361 31.4693 10 31.1408 10 30.7984C10 30.309 10.2764 29.8618 10.714 29.6429L11.8951 29.0525C13.9484 28.0258 16.4282 28.4282 18.0515 30.0514L20.4379 32.4378C21.4381 33.4381 22 34.7946 22 36.209V44.6666" stroke="currentColor" stroke-width="4" stroke-linecap="round" stroke-linejoin="round"/>
</svg>
