<svg width="55" height="49" viewBox="0 0 55 49" fill="none" xmlns="http://www.w3.org/2000/svg">
<path d="M34.8571 32C37.6975 32 40 34.3025 40 37.1429V40.5759L39.982 40.8239C39.2717 45.6838 34.9063 48.0207 27.5812 48.0207C20.2825 48.0207 15.8475 45.7105 14.8902 40.9065L14.8571 40.5714V37.1429C14.8571 34.3025 17.1597 32 20 32H34.8571ZM34.8571 35.4286H20C19.0532 35.4286 18.2857 36.1961 18.2857 37.1429V40.3894C18.9252 43.1332 21.83 44.5921 27.5812 44.5921C33.3322 44.5921 36.1066 43.149 36.5714 40.4415V37.1429C36.5714 36.1961 35.8039 35.4286 34.8571 35.4286ZM37.1281 18.2832L49.7143 18.2857C52.5546 18.2857 54.8571 20.5883 54.8571 23.4286V26.8617L54.8391 27.1096C54.1288 31.9695 49.7635 34.3064 42.4384 34.3064L41.7187 34.2987C41.0443 32.6676 39.806 31.3322 38.2477 30.5314C39.4244 30.7621 40.8185 30.8778 42.4384 30.8778C48.1894 30.8778 50.9637 29.4347 51.4286 26.7272V23.4286C51.4286 22.4818 50.6611 21.7143 49.7143 21.7143H37.7143C37.7143 20.5112 37.5077 19.3563 37.1281 18.2832ZM5.14286 18.2857L17.729 18.2832C17.4127 19.1775 17.2165 20.1285 17.1599 21.1169L17.1429 21.7143H5.14286C4.19608 21.7143 3.42857 22.4818 3.42857 23.4286V26.6751C4.06809 29.4189 6.97286 30.8778 12.7241 30.8778C14.146 30.8778 15.3859 30.7896 16.4539 30.6159C14.9665 31.4236 13.7873 32.7255 13.1345 34.3007L12.7241 34.3064C5.4254 34.3064 0.990403 31.9962 0.0330576 27.1922L0 26.8571V23.4286C0 20.5883 2.30254 18.2857 5.14286 18.2857ZM27.4286 13.7143C31.8469 13.7143 35.4286 17.296 35.4286 21.7143C35.4286 26.1326 31.8469 29.7143 27.4286 29.7143C23.0103 29.7143 19.4286 26.1326 19.4286 21.7143C19.4286 17.296 23.0103 13.7143 27.4286 13.7143ZM27.4286 17.1429C24.9038 17.1429 22.8571 19.1896 22.8571 21.7143C22.8571 24.239 24.9038 26.2857 27.4286 26.2857C29.9533 26.2857 32 24.239 32 21.7143C32 19.1896 29.9533 17.1429 27.4286 17.1429ZM42.2857 0C46.704 0 50.2857 3.58172 50.2857 8C50.2857 12.4183 46.704 16 42.2857 16C37.8674 16 34.2857 12.4183 34.2857 8C34.2857 3.58172 37.8674 0 42.2857 0ZM12.5714 0C16.9897 0 20.5714 3.58172 20.5714 8C20.5714 12.4183 16.9897 16 12.5714 16C8.15315 16 4.57143 12.4183 4.57143 8C4.57143 3.58172 8.15315 0 12.5714 0ZM42.2857 3.42857C39.761 3.42857 37.7143 5.47527 37.7143 8C37.7143 10.5247 39.761 12.5714 42.2857 12.5714C44.8104 12.5714 46.8571 10.5247 46.8571 8C46.8571 5.47527 44.8104 3.42857 42.2857 3.42857ZM12.5714 3.42857C10.0467 3.42857 8 5.47527 8 8C8 10.5247 10.0467 12.5714 12.5714 12.5714C15.0962 12.5714 17.1429 10.5247 17.1429 8C17.1429 5.47527 15.0962 3.42857 12.5714 3.42857Z" fill="currentColor"/>
</svg>
