<svg width="63" height="62" viewBox="0 0 63 62" fill="none" xmlns="http://www.w3.org/2000/svg">
<path d="M29.1785 0.069416C24.7574 0.637733 21.336 3.13245 19.2246 7.33149C18.1622 9.44349 17.5574 12.0368 17.7302 13.7782C17.8166 14.7414 18.1008 15.791 18.3849 16.2237C18.632 16.5942 18.879 16.3843 15.7174 18.4221C13.0249 20.1385 12.2838 20.7312 11.1478 22.0528C9.09789 24.4361 7.99837 26.5974 6.39325 31.3769C5.75005 33.279 4.99677 35.391 4.72541 36.0701C4.11997 37.5888 2.47773 42.5661 2.05789 44.159C1.24253 47.2221 0.946211 50.0381 1.13117 52.6934C1.21757 53.9657 1.29181 54.3856 1.46461 54.5705C2.02013 55.2009 7.49149 57.6214 8.34333 57.6214C9.92413 57.6214 12.9622 54.6326 14.2467 51.8045L14.6665 50.8905L14.8272 51.3846C15.247 52.6934 16.2845 54.4348 17.4083 55.7443C17.816 56.2262 18.1616 56.7325 18.1616 56.8681C18.1616 57.0288 18.2601 57.1523 18.4457 57.1894C18.5942 57.2265 24.5097 57.2387 31.5862 57.2265L44.4553 57.1894L45.0236 56.6339C46.1104 55.5843 47.2592 53.6573 48.1609 51.3853C48.2352 51.1875 48.3708 51.3603 48.8528 52.2992C49.9516 54.4233 51.6688 56.399 53.3974 57.5107C54.5334 58.2518 54.966 58.1897 57.9299 56.8809C58.5724 56.5968 59.5478 56.1148 60.1033 55.8064C61.19 55.2016 61.3756 54.9667 61.6348 53.7936C61.8198 52.9539 61.7833 50.3357 61.5606 48.8656C61.0294 45.1849 59.3622 39.5536 56.8182 32.7363C54.8176 27.3885 53.4217 24.7952 51.1004 22.0905C49.9516 20.7446 49.2726 20.1884 47.062 18.7805C46.0124 18.1136 44.8515 17.3725 44.5052 17.1504L43.8505 16.7305L44.1718 16.2614C45.0364 14.9398 45.2956 13.0256 44.9008 10.6793C43.9248 4.82525 40.3804 1.24381 34.5884 0.268452C33.1427 0.0201302 30.3888 -0.0784264 29.1785 0.069416ZM33.6124 2.11997C36.095 2.55197 38.0956 3.57725 39.8985 5.36797C40.8496 6.31901 42.319 8.18397 42.1955 8.30749C42.1712 8.33245 41.7014 8.07261 41.1459 7.73917C39.3923 6.67677 37.5395 6.03485 34.8349 5.55293C33.3654 5.28093 29.6355 5.24446 28.2896 5.47869C26.1033 5.87421 23.7571 6.66461 22.0035 7.61501C21.6329 7.81277 21.2995 7.94845 21.2745 7.91133C21.1632 7.79997 22.0649 6.45405 22.8182 5.62653C24.4611 3.83581 26.6716 2.58845 29.03 2.10653C30.1539 1.88509 32.2288 1.88509 33.6124 2.11997ZM33.9702 7.41789C35.6745 7.66493 37.3417 8.07261 38.6012 8.59101C40.3798 9.29501 42.2198 10.5545 42.8867 11.5305C43.2572 12.0489 43.2944 12.1974 43.2944 12.9757C43.2944 13.7046 43.2329 13.976 42.8988 14.6429C42.1705 16.1373 40.6512 17.4832 38.7491 18.3478C37.4524 18.9283 36.5264 19.1133 35.1427 19.064C34.031 19.0269 33.8211 18.9776 32.9814 18.5821C32.4752 18.335 31.7961 17.903 31.4748 17.6189C31.1664 17.3469 30.8451 17.1126 30.7708 17.1126C30.6966 17.1126 30.6352 17.0512 30.6352 16.9891C30.6352 16.7421 29.9433 16.8777 29.4992 17.2112C29.2521 17.3961 28.7952 17.7174 28.4988 17.9401C26.2633 19.5581 23.6329 19.0889 21.1261 16.6185C19.9901 15.5069 19.5203 14.6422 19.4339 13.5062C19.2861 11.6784 20.2365 10.5302 22.991 9.17149C25.1644 8.10909 27.0416 7.54141 29.1536 7.31869C30.2774 7.19581 32.735 7.25725 33.9702 7.41789ZM44.3811 19.1753C45.3443 19.8301 46.1718 20.3977 46.2211 20.4349C46.3696 20.5584 45.3193 23.9299 45.0352 24.239C44.9609 24.3254 41.8486 26.2275 38.1065 28.463L31.3148 32.5507L31.2777 26.1654C31.2656 22.6582 31.2656 19.768 31.2899 19.7558C31.3148 19.7309 31.9075 19.9408 32.6236 20.2249C33.7596 20.6819 34.0438 20.7433 35.1555 20.7933C36.1437 20.8304 36.6249 20.7933 37.4403 20.5833C38.6749 20.2749 40.367 19.4595 41.5651 18.607C42.047 18.2736 42.479 17.9894 42.5283 17.9894C42.5904 17.9772 43.4179 18.5085 44.3811 19.1753ZM21.0646 18.9897C22.2627 19.9037 24.5104 20.694 25.9184 20.694C26.1776 20.694 27.0051 20.472 27.7833 20.2C28.5616 19.928 29.2156 19.7309 29.2406 19.743C29.2656 19.768 29.2656 22.5219 29.2528 25.8685L29.2156 31.9453L23.2381 28.1168L17.2483 24.3005L16.8035 22.9545C16.5565 22.2262 16.2601 21.448 16.1616 21.2502C15.7667 20.4969 15.7417 20.5213 17.9152 19.2867L19.9529 18.1257L20.2614 18.3606C20.4342 18.4963 20.7926 18.7798 21.0646 18.9897ZM14.568 22.0157C15.247 23.3616 15.951 26.6224 16.1737 29.4505C16.4457 32.8841 15.791 36.5763 14.3459 39.6515C13.8147 40.7875 13.6912 41.6771 13.5184 45.3328C13.4813 46.2838 13.3705 47.4448 13.2713 47.9017C12.5673 51.3353 10.5789 54.4227 8.38045 55.4601L7.93565 55.6822L6.40413 55.0281C5.56445 54.6697 4.40349 54.1385 3.81085 53.8422L2.72413 53.2989V51.6317C2.72413 47.7904 3.47741 44.3203 5.57725 38.5405C5.99709 37.3795 6.96029 34.6627 7.71357 32.4893C9.15869 28.3645 9.91197 26.6845 11.0973 24.8937C11.8134 23.8192 13.9005 21.5593 14.1725 21.5593C14.2595 21.5587 14.4323 21.7686 14.568 22.0157ZM48.9385 22.6953C51.0013 24.8317 52.3843 27.1536 54.1129 31.3776C57.9292 40.7017 59.942 47.8403 59.8928 51.7552C59.8678 53.3481 59.8313 53.4224 58.9168 53.9165C57.558 54.6326 54.5693 55.8928 54.4214 55.8057C54.3472 55.7686 53.9273 55.448 53.4953 55.1017C51.544 53.5459 49.7411 50.4214 49.1728 47.6176C49.0985 47.247 48.9878 46.0982 48.9136 45.0736C48.7286 42.4432 48.4816 40.9488 48.111 40.2198C46.9379 37.8857 46.0732 33.9952 46.0732 31.0313C46.0732 29.6233 46.3203 27.7462 46.6908 26.1405C47.0364 24.7081 47.9504 21.9293 48.0867 21.9293C48.1481 21.9293 48.5308 22.2749 48.9385 22.6953ZM23.8185 30.8093L29.2771 34.3043V37.4909V40.6768L23.6822 37.3424L18.0752 33.9958L18.1373 32.1302C18.1865 30.4381 18.063 28.5117 17.8409 27.3629L17.7545 26.9309L18.0509 27.1286C18.2115 27.24 20.8048 28.895 23.8185 30.8093ZM44.3318 28.3145C44.1833 29.352 44.1468 32.0445 44.2576 33.5261C44.2825 33.9216 44.2326 33.983 43.6028 34.3414C41.775 35.4032 31.3884 41.1958 31.3142 41.1958C31.2771 41.1958 31.2649 39.7757 31.2771 38.0342L31.3142 34.8605L37.8595 30.9456C41.4665 28.7958 44.431 27.0422 44.4553 27.0672C44.4803 27.0915 44.431 27.6477 44.3318 28.3145ZM44.5916 36.3664C44.5916 36.8233 45.3449 39.1081 45.9504 40.504C46.9507 42.8009 47.1606 42.4061 43.9869 44.0854C42.4925 44.888 41.2329 45.5305 41.1836 45.5305C41.1344 45.5305 40.7638 44.6537 40.3683 43.5792C39.64 41.5907 39.3929 41.1958 38.8489 41.1958C38.5769 41.1958 37.9228 41.8134 37.9228 42.0726C37.9228 42.1469 38.207 43.1715 38.5526 44.3696C38.886 45.5677 39.1331 46.5801 39.0716 46.6301C38.8988 46.7779 31.2662 50.4585 31.1305 50.4585C31.0441 50.4585 31.0192 49.2605 31.032 46.9264L31.0691 43.3821L37.6764 39.7757C41.3072 37.7872 44.358 36.1571 44.4445 36.1449C44.5174 36.1321 44.5916 36.2307 44.5916 36.3664ZM29.2528 46.6173C29.2649 48.5315 29.2406 50.088 29.2035 50.088C29.1292 50.088 23.9421 47.272 23.3865 46.9264L23.1152 46.7536L23.8563 44.5673C24.2512 43.3571 24.5853 42.2205 24.5853 42.0355C24.5853 41.3808 23.8198 40.9737 23.3129 41.3437C23.2016 41.4301 22.7696 42.4432 22.3741 43.5913C21.9664 44.7273 21.6086 45.6905 21.5715 45.7277C21.5465 45.7526 20.2377 45.1222 18.6691 44.3197L15.8032 42.863L15.8896 42.431C15.9267 42.1961 16.0624 41.8134 16.1859 41.5664C16.5443 40.8624 17.112 39.1331 17.4825 37.6515L17.816 36.2806L23.5216 39.7142L29.215 43.16L29.2528 46.6173ZM20.6813 47.5062C20.7427 47.5555 20.4221 48.7536 19.9651 50.1737C19.5203 51.5817 19.1497 52.8412 19.1497 52.9648C19.1497 53.5331 19.9894 53.8416 20.6813 53.5331C21.0397 53.3603 21.1504 53.1254 21.9286 50.5443C22.2621 49.4819 22.5584 48.6057 22.6077 48.6057C22.6569 48.6057 24.1635 49.3833 25.9549 50.335L29.215 52.0515L29.2521 53.6694L29.2892 55.2752L24.0777 55.2502L18.8662 55.2131L18.1993 54.3485C17.384 53.2989 16.4086 51.3347 16.0752 50.088C15.7168 48.8035 15.4454 46.8771 15.4454 45.7283V44.7773L18.0144 46.0867C19.4217 46.815 20.6198 47.4448 20.6813 47.5062ZM47.1971 46.5923C47.0243 48.3088 46.6659 49.8902 46.0854 51.4089C45.6777 52.4464 44.566 54.3485 43.9984 54.9289L43.6771 55.2745H37.4652H31.2534V53.9779V52.6813L35.5881 50.5078C37.9715 49.3219 39.935 48.3587 39.96 48.3837C39.9721 48.4086 40.3305 49.4704 40.7625 50.7677C41.615 53.3731 41.8 53.6701 42.6025 53.6701C43.0717 53.6701 43.3558 53.4601 43.5164 53.0275C43.5536 52.9168 43.208 51.6445 42.7382 50.1993C42.2691 48.7542 41.8985 47.5568 41.9107 47.544C42.2563 47.272 47.2585 44.8272 47.2957 44.9136C47.3206 44.9872 47.2713 45.7405 47.1971 46.5923Z" fill="currentColor"/>
<path d="M0.316467 57.6829C-0.115533 58.1027 -0.103373 58.7075 0.341427 59.128C0.823347 59.5728 6.20767 61.944 6.73887 61.944C6.96095 61.944 7.24511 61.8576 7.34431 61.7462C7.61631 61.4742 7.60351 60.5603 7.31935 60.3011C7.06015 60.0662 1.05759 57.3744 0.798387 57.3744C0.699187 57.3744 0.477107 57.5101 0.316467 57.6829Z" fill="currentColor"/>
<path d="M58.856 58.646C55.3238 60.2389 55.4716 60.1525 55.2624 60.6466C54.9782 61.3506 55.3609 61.9432 56.1142 61.9432C56.2748 61.9432 57.7321 61.3506 59.35 60.6216C62.6723 59.1151 62.8944 58.9544 62.6473 58.1391C62.5238 57.7192 62.1283 57.3736 61.7827 57.3736C61.7334 57.3743 60.424 57.9541 58.856 58.646Z" fill="currentColor"/>
<path d="M17.3597 59.5228C16.952 59.9305 16.952 60.4981 17.3597 60.9058L17.656 61.2021L31.6119 61.1772C46.9629 61.1401 45.864 61.2021 46.0247 60.3868C46.074 60.0905 46.0247 59.9298 45.7898 59.6457L45.4813 59.2873L31.5748 59.2501L17.656 59.2258L17.3597 59.5228Z" fill="currentColor"/>
</svg>
