<svg width="64" height="60" viewBox="0 0 64 60" fill="none" xmlns="http://www.w3.org/2000/svg">
<path fill-rule="evenodd" clip-rule="evenodd" d="M20.0002 25.3125C22.5775 25.3125 24.6668 23.3537 24.6668 20.9375C24.6668 18.5212 22.5775 16.5625 20.0002 16.5625C17.4228 16.5625 15.3335 18.5212 15.3335 20.9375C15.3335 23.3537 17.4228 25.3125 20.0002 25.3125ZM16.6668 27.1875C15.998 27.1875 15.3736 27.5009 15.0027 28.0224L9.66936 35.5224C9.05666 36.384 9.30501 37.5481 10.2241 38.1226C11.1431 38.697 12.3849 38.4641 12.9976 37.6026L14.6668 35.2552V46.5625C14.6668 47.598 15.5622 48.4375 16.6668 48.4375C17.7714 48.4375 18.6668 47.598 18.6668 46.5625V40.3125H21.3335V46.5625C21.3335 47.598 22.2288 48.4375 23.3335 48.4375C24.438 48.4375 25.3335 47.598 25.3335 46.5625V35.2552L27.0027 37.6026C27.6154 38.4641 28.8571 38.697 29.7762 38.1226C30.6952 37.5481 30.9436 36.384 30.3308 35.5224L24.9975 28.0224C24.6266 27.5009 24.0022 27.1875 23.3335 27.1875H16.6668Z" fill="currentColor"/>
<path fill-rule="evenodd" clip-rule="evenodd" d="M49.3335 13.0069C49.3335 12.6347 48.8794 12.3897 48.486 12.5499L44.0002 14.375L39.5142 12.5499C39.121 12.3897 38.6668 12.6347 38.6668 13.0069V15.7431C38.6668 16.1154 39.121 16.3601 39.5142 16.2002L44.0002 14.375L48.486 16.2002C48.8794 16.3601 49.3335 16.1154 49.3335 15.7431V13.0069ZM44.0002 25.3125C46.5775 25.3125 48.6668 23.3537 48.6668 20.9375C48.6668 18.5212 46.5775 16.5625 44.0002 16.5625C41.4228 16.5625 39.3335 18.5212 39.3335 20.9375C39.3335 23.3537 41.4228 25.3125 44.0002 25.3125ZM40.6668 27.1875C39.998 27.1875 39.3736 27.5009 39.0027 28.0224L33.6694 35.5224C33.0567 36.384 33.305 37.5481 34.224 38.1226C35.1431 38.697 36.3848 38.4641 36.9975 37.6026L38.6668 35.2552V37.5L36.0002 42.5H38.6668V46.5625C38.6668 47.598 39.5622 48.4375 40.6668 48.4375C41.7714 48.4375 42.6668 47.598 42.6668 46.5625V42.5H45.3335V46.5625C45.3335 47.598 46.2288 48.4375 47.3335 48.4375C48.438 48.4375 49.3335 47.598 49.3335 46.5625V42.5H52.0002L49.3335 37.5V35.2552L51.0027 37.6026C51.6154 38.4641 52.8571 38.697 53.7762 38.1226C54.6952 37.5481 54.9436 36.384 54.3308 35.5224L48.9975 28.0224C48.6266 27.5009 48.0022 27.1875 47.3335 27.1875H40.6668Z" fill="currentColor"/>
</svg>
