<?xml version="1.0" encoding="UTF-8"?>
<svg id="Layer_1" data-name="Layer 1" xmlns="http://www.w3.org/2000/svg" xmlns:xlink="http://www.w3.org/1999/xlink" viewBox="0 0 960 960">
  <defs>
    <style>
      .cls-1 {
        fill: url(#Degradado_sin_nombre_19);
      }

      .cls-1, .cls-2, .cls-3 {
        stroke-width: 0px;
      }

      .cls-2 {
        fill: #01e0c5;
      }

      .cls-3 {
        fill: #fdfcfd;
      }
    </style>
    <linearGradient id="Degradado_sin_nombre_19" data-name="Degradado sin nombre 19" x1="105.59" y1="854.01" x2="853.53" y2="106.08" gradientUnits="userSpaceOnUse">
      <stop offset="0" stop-color="#6f0384"/>
      <stop offset="1" stop-color="#a221af"/>
    </linearGradient>
  </defs>
  <rect class="cls-1" x="42.2" y="42.68" width="874.73" height="874.73" rx="215.82" ry="215.82"/>
  <g>
    <path class="cls-3" d="M337.19,588.9c-3.85,3.63-7.5,7.17-11.25,10.6-5.16,4.71-10.81,8.69-17.45,11.09-16.07,5.82-30.45-1.66-35.07-18.09-2.05-7.3-1.79-14.6-.56-21.91,1.3-7.71,2.45-15.47,4.38-23.03,1.97-7.76,4.68-15.35,7.28-22.93,3.34-9.74,6.8-19.45,10.41-29.09,2.29-6.09,2.2-12.36,1.88-18.64-.33-6.52,2.78-10.21,9.23-9.87,5.25.28,10.44,1,14.43,5.13,4.66,4.82,6.18,10.59,4.51,16.85-3.17,11.88-6.9,23.6-10.2,35.44-2.69,9.66-5.28,19.36-7.52,29.14-.77,3.38-.74,7.07-.39,10.55.7,6.85,6.3,10.29,12.55,7.4,3.62-1.68,7.03-4.28,9.85-7.14,8.94-9.05,14.04-20.4,18.32-32.18,1.5-4.14,3.05-8.25,4.53-12.39,3.34-9.33,6.75-18.64,9.93-28.03,2.71-7.98,5.04-16.08,7.73-24.06,4.33-12.9,18-23.82,31.9-23.07,7.21.39,8.81,3.39,7.5,9.47-2.41,11.25-5.44,22.37-8.54,33.46-13.78,49.3-27.67,98.57-41.52,147.85-.3,1.08-.53,2.17-.77,3.14,48.23-7.84,96.32-15.66,144.85-23.55,1.95-10.23,3.97-20.89,6.18-32.52-1.92,1.19-3.05,1.91-4.2,2.6-5.11,3.08-10.36,5.81-16.32,6.87-10.52,1.87-18.33-2.89-21.5-13.16-.44-1.41-.78-2.85-1.3-4.76-1.95,3.45-3.52,6.58-5.41,9.5-5.39,8.33-12.25,14.78-22.35,17.02-14.8,3.27-29.25-4.44-34.45-18.68-2.89-7.9-4.11-16.18-4.41-24.56-.83-23.53,5.17-45.67,13.87-67.25,4.13-10.24,9.17-19.94,15.88-28.73,5.07-6.65,10.73-12.71,17.57-17.61,11.04-7.91,27.21-9.19,40.11,2.7.8-2.37,1.61-4.57,2.29-6.8,1.8-5.89,6.6-7.52,12.62-6.7,2.37.32,4.73.96,6.99,1.74,4.51,1.55,6.95,4.93,6.99,9.62.03,3.07-.51,6.2-1.16,9.22-5.04,23.37-10.36,46.68-15.15,70.1-1.52,7.44-1.74,15.15-2.43,22.75-.14,1.52.11,3.13.48,4.63.92,3.75,2.6,4.71,6.18,3.23,2.59-1.07,5.09-2.46,7.44-3.99,3.73-2.43,5.64-5.89,6.49-10.41,6.42-34.06,13.06-68.09,19.64-102.12.08-.42.22-.82.31-1.24,2.02-9.41,5.56-9.47,13.45-8.43,2.88.38,5.72,1.3,8.48,2.24,3.52,1.2,4.41,2.84,4.02,6.64-.23,2.25-.54,4.5-.03,6.99,1.99-2.4,3.93-4.84,5.98-7.19,2.58-2.96,4.89-6.31,7.95-8.68,8.34-6.48,17.94-8.18,28.16-5.72,7.04,1.7,11.31,6.61,14.1,13.04,4.37,10.06,5.61,20.71,5.88,31.52.51,20.01-3.94,39.24-9.66,58.21-3.27,10.85-7.29,21.47-13.29,31.14-3.27,5.26-6.82,10.48-11,15.03-17.37,18.91-39.73,12.4-51.92,1.14-.92-.85-1.74-1.8-3.4-3.53-2.17,14.63-4.21,28.34-6.35,42.73,4.11-.48,7.55-.85,10.99-1.27,27.54-3.37,55.07-6.85,82.63-10.09,12.51-1.47,25.06-2.77,37.63-3.64,6.6-.46,13.3-.17,19.91.39,10.69.89,15.42,11.08,13.12,20.04-1.04,4.06-3.79,7.02-8.1,7.88-7.62,1.52-15.24,3.23-22.94,4.21-34.12,4.35-68.28,8.44-102.42,12.69-10.96,1.36-21.88,3-32.84,4.31-2.36.28-3.34,1.08-3.93,3.41-1.07,4.24-2.43,8.42-4.01,12.5-1.58,4.08-4.51,7.2-8.36,9.3-6.64,3.64-14.07.26-15.17-7.24-.62-4.26-.11-8.7-.11-13.51-6.4.9-12.52,1.59-18.58,2.65-40.83,7.2-81.56,14.9-121.91,24.44-3.44.81-7.66.91-9.99,3.02-2.31,2.1-2.81,6.29-3.91,9.62-6.22,18.96-13.1,37.66-22.27,55.44-9.87,19.13-21.75,36.81-37.45,51.7-9.61,9.12-20.51,15.96-33.89,18.21-23.58,3.97-43.56-11.75-45.2-35.68-.78-11.41,2.27-22.13,5.89-32.77,4.62-13.56,11.55-25.89,20.23-37.18,4.59-5.98,9.48-11.93,15.14-16.85,19.86-17.25,41.13-32.41,66.26-41.29,1.47-.52,3.09-.87,4.3-1.76,1.5-1.11,3.27-2.49,3.82-4.13,6.28-18.62,12.35-37.31,18.45-55.99.12-.36-.03-.82-.06-1.15ZM304.71,691.9c-1.19.43-2.43.76-3.56,1.31-18.37,8.88-34.18,21.01-46.77,37.15-7.87,10.08-14.84,20.73-18.42,33.16-1.08,3.73-1.59,7.8-1.43,11.68.25,6.18,5.5,9.57,11.39,7.65,2.38-.77,4.65-2.08,6.73-3.49,6.52-4.41,11.7-10.24,16.47-16.42,10.97-14.18,19.46-29.83,26.68-46.15,3.53-7.97,6.25-16.3,9.34-24.46.16-.17.32-.34.48-.52-.31.03-.62.06-.92.09ZM596.55,474.5c-.51-2.94-.89-7.94-2.3-12.62-2.52-8.35-8.26-10.31-15.19-4.97-3.94,3.04-7.73,6.87-10.17,11.15-3.83,6.69-7.01,13.88-9.49,21.19-6.32,18.62-10.41,37.84-14.37,57.07-.51,2.47.05,4.23,2.24,5.26,1.89.89,3.89,1.85,5.92,2.09,8.04.95,14.94-1.92,20.09-7.87,3.56-4.11,6.67-8.86,8.87-13.81,3.42-7.72,6.13-15.78,8.72-23.84,3.3-10.27,4.97-20.88,5.67-33.65ZM481.83,476.84c.2-8.47-4.37-12.18-11.02-10.49-1.77.45-3.47,1.19-5.14,1.94-9.67,4.34-16.64,11.62-21.89,20.61-7.67,13.13-12.16,27.35-13.63,42.45-.7,7.22-.32,14.45,2.43,21.32.63,1.56,1.35,3.14,2.31,4.51,4.71,6.69,12.01,7.29,17.66,1.37,5.09-5.32,8.23-11.9,10.51-18.74,5.39-16.21,10.44-32.54,15.43-48.88,1.56-5.12,2.49-10.43,3.35-14.08Z"/>
    <path class="cls-2" d="M508.46,143.76c47.27,2.87,84.62,24.63,105.08,70.65,20.49,46.09,6.61,100.52-32.35,132.7-24.72,20.42-53.22,29.4-85.1,27.77-9.63-.49-19.16-2.15-28.25-5.47-4.44-1.62-8.29-1.18-12.07,1.29-5.68,3.72-11.32,7.52-16.98,11.27-3.54,2.35-7.08,4.7-10.65,6.99-1.19.76-2.45,1.42-3.74,1.99-5.92,2.64-8.68,1.09-8.91-5.31-.14-3.8.1-7.65.57-11.43.96-7.72,2.15-15.42,3.34-23.11,1.01-6.52-.47-11.79-5.01-17.09-19.66-22.94-28.58-49.74-27.12-79.97,1.12-23.05,9.26-43.6,22.54-62.16,3.91-5.46,8.75-10.33,13.61-15.01,19.25-18.54,42.55-28.62,68.87-32.01,4.63-.6,9.32-.64,16.18-1.07ZM481.09,317.4c4.63-1.04,10.77-1.71,16.38-3.81,11.77-4.41,18.16-16.31,15.96-28.26-1.24-6.78-4.95-11.9-10.53-15.82-7.61-5.36-16.3-8.4-24.84-11.82-4.43-1.77-8.98-3.71-12.75-6.54-7.81-5.85-6.35-15.77,2.61-19.69,7.47-3.27,14.69-2.16,21.53,1.91,4.29,2.55,6.82,6.28,6.92,11.45.02,1.12.22,2.26.53,3.34,1.1,3.85,4.26,6.17,7.8,5.82,3.82-.38,6.79-3.34,6.87-7.39.21-10.23-3.41-18.74-12.62-23.84-12.49-6.92-25.64-7.75-38.86-2.24-7.8,3.25-12.95,9.06-14,17.79-1.14,9.47,1.54,17.51,9.8,22.83,4.49,2.89,9.37,5.23,14.21,7.53,4.85,2.3,9.97,4.04,14.78,6.43,3.13,1.56,6.25,3.47,8.75,5.88,4.06,3.91,5.31,9.03,3.65,14.45-1.6,5.27-6.28,6.5-11.01,7.27-2.09.34-4.24.4-6.36.4-13.55-.06-20.3-6.11-21.88-19.53-.57-4.84-3.71-7.67-8.15-7.37-4.28.29-7.26,3.76-6.91,8.57,1.03,13.93,8.68,26.71,24.88,30.66,3.83.93,7.81,1.2,13.21,1.99ZM579.99,224.42c-.08-3.89-1.48-6.05-4.14-7.32-2.56-1.22-5.89-.67-7.85,1.41-1.05,1.11-1.87,2.48-2.61,3.84-14.61,26.67-29.2,53.36-43.79,80.05-.68,1.24-1.41,2.47-1.88,3.8-1.09,3.07.14,6.4,2.85,8.17,2.7,1.76,6.29,1.54,8.62-.73.99-.97,1.78-2.2,2.45-3.43,14.97-27.29,29.91-54.59,44.82-81.9.79-1.45,1.23-3.1,1.53-3.88Z"/>
    <path class="cls-3" d="M627.65,528.62c.53-9.34.12-16.98,1.59-24.25,2.01-10,4.92-19.9,8.39-29.5,5.94-16.44,13.82-32.06,25.06-45.53,5.47-6.56,11.97-12.56,18.93-17.51,7.49-5.33,16.62-6.12,25.77-4.99,5.51.68,10.69,2.17,15.13,5.72,5.43,4.33,8.41,9.91,9.46,16.79,1.16,7.64-.16,14.91-2.59,22.02-9.82,28.82-29.43,47.01-59.16,54.1-.41.1-.84.36-1.23.3-5.68-.81-7.02,3.06-8.29,7.35-1.88,6.36-2.72,12.72-1.13,19.26,1.73,7.1,7.3,10.86,14.6,9.74,8.26-1.26,15.19-5.45,21.39-10.68,5.06-4.26,9.81-8.98,14.23-13.91,6.58-7.32,10.42-6.88,14.44,2.19.29.65.53,1.31.84,1.95,4.12,8.57,2.81,15.61-4.33,22.48-11.47,11.05-23.11,21.69-38.16,27.57-5.48,2.14-11.3,4.02-17.11,4.59-16.1,1.58-28.6-6.91-34-22.33-1.02-2.92-1.96-5.95-2.35-9.01-.77-6.03-1.12-12.11-1.48-16.35ZM668.81,477.75c.27.37.54.73.82,1.1,3.78-1.42,7.73-2.49,11.3-4.31,10.35-5.28,18.9-12.46,23.05-23.79,1.28-3.49,2.08-7.08,1-10.8-1.08-3.74-4.03-5.85-7.73-4.73-2.73.83-5.62,2.28-7.59,4.29-10.57,10.76-16.49,24.11-20.85,38.25Z"/>
  </g>
</svg>