<svg width="112" height="50" viewBox="0 0 112 50" fill="none" xmlns="http://www.w3.org/2000/svg">
<path d="M38.3434 24.1997C41.0788 25.3843 42.6312 27.4334 42.8284 30.9873C43.0502 34.9254 41.7441 37.871 39.3045 40.0482C37.8999 41.3289 36.2981 42.0973 34.6224 42.4815C31.4436 43.2499 28.24 43.2819 25.0612 42.6096C21.8576 41.9372 20.453 39.4078 21.143 35.2456C22.5723 26.665 24.1001 18.0844 25.6033 9.53581C25.7265 8.86345 25.8744 8.35117 26.5397 8.28714C30.1375 7.87091 33.7107 7.16654 37.3331 7.96696C38.6638 8.25512 39.9452 8.67134 41.128 9.43975C45.2187 12.0652 45.6376 18.4046 42.0152 21.9585C40.9802 22.951 39.822 23.5913 38.3434 24.1997ZM28.93 27.4654C28.4618 30.2509 28.0183 32.8123 27.5747 35.3416C27.4022 36.3022 27.5008 37.0706 28.3879 37.1346C30.4579 37.2627 32.5278 37.1346 34.376 35.7259C35.7806 34.6693 36.372 33.0044 36.1749 30.8913C35.9778 28.8742 34.8689 28.0737 33.5135 27.5295C32.0103 26.9531 30.5564 27.9137 28.93 27.4654ZM33.4889 13.4739C32.8482 14.0182 31.6407 12.7055 31.2464 14.4344C30.8275 16.3555 30.5318 18.3405 30.1868 20.3256C30.0636 20.998 30.2361 21.6063 30.8028 21.6383C33.0207 21.7984 35.2385 21.8304 37.0374 19.7813C38.787 17.7962 38.2449 14.7226 36.0271 13.7941C35.2385 13.5059 34.4253 13.5059 33.4889 13.4739ZM91.8422 13.9542C90.5855 9.47177 87.4066 8.41521 84.1538 7.99898C81.1474 7.61478 78.1164 7.80688 75.11 8.25512C74.075 8.4152 73.5575 8.92748 73.3111 10.3362C71.5368 20.8379 69.6887 31.3395 67.8898 41.8411C67.8158 42.2253 67.668 42.6416 68.0623 43.1218H70.4279C73.4343 43.1218 74.3214 42.1933 74.9868 38.4153C75.3811 36.1741 75.7753 33.9009 76.145 31.7237C76.761 31.4356 77.2539 31.6597 77.7467 31.6917C82.0838 31.8838 86.1991 30.9553 89.378 26.729C92.0887 23.1431 93.2222 18.7888 91.8422 13.9542ZM86.4209 19.5572C85.8295 23.2071 83.4145 25.4804 80.0878 25.5124C77.9192 25.5124 77.7221 25.1922 78.1903 22.3427C78.5846 20.0054 79.0035 17.7002 79.3239 15.3629C79.4717 14.2103 79.9153 13.7621 80.7778 13.7621C81.6895 13.7301 82.6013 13.666 83.5131 13.8901C85.8788 14.4665 86.9137 16.4835 86.4209 19.5572ZM67.5201 8.60731C61.8277 5.91787 56.3571 6.39812 51.6504 11.681C47.1408 16.7397 45.7115 23.4633 46.2783 31.0193C46.5987 35.3416 48.0033 38.9596 50.985 41.1688C54.78 43.9863 58.846 44.0823 62.9366 42.5135C63.8484 42.1613 64.5384 41.3289 64.7848 40.0802C65.1544 38.1912 65.4748 36.3022 65.8444 34.157C64.563 35.0535 63.528 35.8859 62.3452 36.3662C58.6242 37.871 54.9032 36.014 53.5971 31.9798C51.7982 26.4089 54.361 17.6362 58.6242 15.0748C62.1234 12.9937 65.4994 13.9222 68.8755 16.3555C69.0726 15.3949 69.2697 14.5305 69.4422 13.666C69.9351 11.0086 69.5162 9.56782 67.5201 8.60731Z" fill="#004192"/>
<path d="M10.3498 11.2327C13.7012 13.4419 16.3872 16.6116 18.3586 20.7097C19.5661 23.2391 19.4183 26.0246 18.0629 28.4579C15.2783 33.5166 11.582 37.2306 7.29417 39.792C4.411 41.5209 1.23212 39.5038 0 35.4376C1.72497 34.253 3.44995 33.0364 5.02706 31.5316C7.39274 29.2904 9.43806 26.697 10.4484 23.015C11.8284 19.0769 11.9516 15.1388 10.3498 11.2327ZM102.759 11.2327C106.11 13.4098 108.796 16.6436 110.793 20.7097C112 23.1751 111.901 25.8965 110.595 28.2978C107.786 33.4846 104.016 37.2626 99.6295 39.856C96.771 41.5209 93.666 39.4718 92.4585 35.5017C94.0849 34.3491 95.736 33.1964 97.2392 31.7557C99.6788 29.4504 101.847 26.825 102.882 23.015C104.287 19.0449 104.385 15.1067 102.759 11.2327Z" fill="#F96A53"/>
<path d="M10.3498 11.2325C11.9515 15.1386 11.8037 19.0447 10.4237 22.9828C8.32909 20.0373 5.71699 18.0202 2.95703 16.4193C4.41094 11.3286 7.71303 9.08738 10.3498 11.2325ZM102.759 11.2325C104.385 15.1386 104.287 19.0447 102.858 23.0149C100.788 20.0693 98.2002 18.0842 95.2924 16.3873C96.2534 13.5698 97.6334 11.5207 99.8019 10.4641C100.911 9.88781 101.872 10.304 102.759 11.2325Z" fill="#004192"/>
</svg>
