<svg width="181" height="84" viewBox="0 0 181 84" fill="none" xmlns="http://www.w3.org/2000/svg">
<path d="M44.9378 30.0215C45.8548 31.4271 46.2681 32.8733 46.2681 34.7017C46.2681 40.5327 40.906 48.1067 36.5545 53.4253H26.5995L22.625 31.2983L31.3281 30.5311L33.4367 46.2769C35.4066 43.2991 37.8365 38.6189 37.8365 35.4269C37.8365 33.6797 37.5138 32.4911 37.01 31.5111L44.9378 30.0215ZM56.2201 39.7655C57.822 39.7655 61.8537 39.0851 61.8537 36.9585C61.8537 35.9365 61.0754 35.4269 60.1584 35.4269C58.5535 35.4269 56.4479 37.2133 56.2186 39.7669L56.2201 39.7655ZM56.0361 43.9655C56.0361 46.5625 57.5927 47.5817 59.6561 47.5817C61.9186 47.5817 64.0529 47.0721 66.8508 45.7533L65.798 52.3893C63.8281 53.2825 60.7602 53.8789 57.7782 53.8789C50.2365 53.8789 47.514 49.6229 47.514 44.3057C47.514 37.4121 51.9138 30.0915 60.9864 30.0915C65.9639 30.0915 68.774 32.6885 68.774 36.3075C68.774 42.1385 60.7104 43.9235 56.0361 43.9655ZM93.8953 35.2155C93.8953 36.0667 93.7565 37.3155 93.6177 38.1079L91.0038 53.4239H82.527L84.9101 39.3819L85.0941 37.8083C85.0941 36.7863 84.4063 36.5315 83.5798 36.5315C82.4817 36.5315 81.3806 36.9991 80.6476 37.3407L77.9446 53.4407H69.4226L73.3171 30.5045H80.7079L80.8014 32.3357C82.542 31.2717 84.8332 30.1237 88.0867 30.1237C92.3945 30.1237 93.9088 32.1677 93.9088 35.2337L93.8953 35.2155ZM119.054 32.6171C121.468 31.0015 123.775 30.1069 126.934 30.1069C131.285 30.1069 132.816 32.1509 132.816 35.2169C132.816 36.0681 132.678 37.3169 132.539 38.1093L129.929 53.4253H121.421L123.834 39.0851L123.973 37.9371C123.973 36.7863 123.285 36.5315 122.459 36.5315C121.406 36.5315 120.353 36.9571 119.572 37.3407L116.857 53.4407H108.38L110.793 39.1005L110.944 37.9525C110.944 36.8017 110.256 36.5469 109.433 36.5469C108.332 36.5469 107.233 37.0145 106.5 37.3561L103.796 53.4561H95.2739L99.1654 30.5199H106.451L106.68 32.4351C108.375 31.2871 110.665 30.1391 113.734 30.1391C116.392 30.1377 118.133 31.2031 119.004 32.6493L119.054 32.6171ZM149.667 39.2979C149.667 37.4261 149.164 36.1479 147.652 36.1479C144.307 36.1479 143.62 41.6359 143.62 44.4443C143.62 46.5751 144.263 47.8925 145.773 47.8925C148.934 47.8925 149.667 42.1049 149.667 39.2979ZM135.006 44.1069C135.006 36.8731 139.129 30.1069 148.615 30.1069C155.764 30.1069 158.373 34.0227 158.373 39.4281C158.373 46.5779 154.295 53.9811 144.581 53.9811C137.387 53.9811 135.003 49.5991 135.003 44.1083L135.006 44.1069Z" fill="#3D95CE"/>
</svg>
