<svg width="216" height="46" viewBox="0 0 216 46" fill="none" xmlns="http://www.w3.org/2000/svg">
<g clip-path="url(#clip0_144_629)">
<path d="M106.338 13.394C100.153 13.394 95.8014 18.6234 95.7655 27.0578C95.7655 34.7753 101.016 39.5408 106.374 39.5408C109.575 39.5408 111.553 38.9504 112.703 37.8539V33.5945C111.04 34.4608 109.237 34.8925 107.417 34.8597C104.109 34.8597 101.447 32.7511 101.016 29.3773L100.98 29.0821H104.828C108.46 29.0821 111.013 28.7025 112.631 27.7747C114.25 26.847 114.933 25.4131 114.933 23.1358C114.933 17.1052 110.797 13.394 106.338 13.394ZM108.855 24.4853C107.849 24.907 106.266 25.0757 103.641 25.0757H100.944V24.7805L100.98 23.9371C101.088 20.9007 103.03 18.2016 105.835 18.2016C106.954 18.1393 108.062 18.4936 108.999 19.2138C109.399 19.5736 109.719 20.0414 109.932 20.5774C110.145 21.1134 110.245 21.7017 110.222 22.2923C110.258 23.3045 109.862 24.0636 108.855 24.4853ZM117.594 23.1358V39.1191H122.665V24.3166C122.665 22.3345 122.988 20.9007 123.708 19.9307C124.427 18.9607 125.434 18.5812 126.692 18.5812C127.15 18.5763 127.607 18.6186 128.059 18.7077V13.9844C127.262 13.5413 126.387 13.3246 125.506 13.3518C119.824 13.394 117.594 18.1173 117.594 23.1358ZM56.0639 39.1191V6.94165H51.0293V39.1191H56.0639ZM69.6933 13.394C62.9326 13.394 60.0197 18.7921 59.9837 24.1058V39.1191H65.0183V24.5275C64.9635 22.9413 65.3692 21.3801 66.1691 20.0994C66.5444 19.5818 67.0137 19.1693 67.5427 18.892C68.0716 18.6147 68.6467 18.4797 69.2258 18.4968C70.6643 18.4968 71.851 19.0029 72.6782 20.0572C73.5053 21.1115 73.9008 22.7984 73.9008 24.9914V39.1191H78.9355V24.4431C78.9355 17.316 74.7639 13.394 69.6933 13.394ZM87.818 6.94165H82.8193V30.1786C82.8553 36.0827 85.3726 39.5408 90.8387 39.583C93.1762 39.583 94.5428 38.6974 95.1182 37.2635V33.5945C94.2191 34.0584 92.9964 34.2693 91.486 34.2693C90.3353 34.2693 89.4003 33.9319 88.753 33.1306C88.1057 32.3293 87.782 31.1063 87.782 29.3773V18.4968H92.1693C94.327 18.4968 95.226 16.8943 95.226 15.7135V13.3518H87.818V6.94165ZM183.296 13.394C176.535 13.394 173.622 18.7921 173.586 24.1058L173.622 39.1191H178.621V24.5275C178.621 22.6297 179.052 21.1537 179.772 20.0994C180.147 19.5818 180.616 19.1693 181.145 18.892C181.674 18.6147 182.249 18.4797 182.828 18.4968C184.267 18.4968 185.454 19.0029 186.281 20.0994C187.108 21.1959 187.503 22.7984 187.503 24.9914V39.1191H192.502V24.4431C192.538 17.316 188.402 13.394 183.296 13.394ZM141.401 13.394C138.56 13.394 136.798 15.3761 135.755 17.1895L135.359 17.8643V6.94165H130.36V26.8891C130.36 35.3657 134.712 39.583 140.358 39.583C146.795 39.583 150.859 33.6367 150.859 26.0457C150.859 18.5812 146.759 13.394 141.401 13.394ZM140.933 34.5645C139.279 34.5645 137.805 34.0162 136.834 32.5824C135.863 31.1485 135.395 28.9556 135.395 25.9613C135.395 21.8706 137.517 18.539 140.394 18.4968C142.084 18.4968 143.451 19.0451 144.385 20.4368C145.321 21.8285 145.788 23.9371 145.788 27.1C145.752 31.3594 143.774 34.5645 140.933 34.5645ZM161.18 13.394C158.123 13.394 156.109 14.364 154.706 15.6291V19.762C156.469 18.7797 158.401 18.2889 160.352 18.3282C162.007 18.3282 163.445 18.6234 164.272 19.3825C165.099 20.1416 165.495 21.4489 165.495 23.3045V23.8949H163.337C155.282 23.9371 152.621 27.2687 152.621 31.6968C152.621 36.2514 156.073 39.583 161.215 39.583H162.33C167.113 39.583 170.422 35.9562 170.422 30.6425V24.7383C170.458 15.7556 166.034 13.4362 161.18 13.394ZM165.567 30.6846C165.567 32.0341 165.279 33.0884 164.632 33.8475C163.985 34.6066 163.05 34.9018 161.827 34.9018C160.79 34.9643 159.762 34.6554 158.878 34.0162C158.528 33.7286 158.246 33.342 158.057 32.8923C157.869 32.4426 157.78 31.9443 157.799 31.4437C157.767 30.9105 157.866 30.3777 158.082 29.9074C158.298 29.437 158.624 29.0484 159.022 28.7869C159.885 28.1965 161.287 27.9434 163.373 27.9434H165.567V30.6846ZM206.887 25.7926L206.779 25.624L206.887 25.4553C209.08 22.208 213.863 15.8822 215.625 13.9844H212.856C211.094 13.9844 209.907 14.1953 208.649 15.587C206.132 18.3703 204.046 21.6598 201.924 24.8649L201.528 25.4974L201.564 6.94165H196.494V39.0769H201.564V26.0457L201.96 26.6783C204.369 30.4316 206.815 34.2271 209.62 37.6009C210.558 38.6357 211.785 39.2353 213.072 39.2878C214.475 39.2878 215.266 38.866 215.805 38.1069C214.367 36.1248 208.613 28.2386 206.887 25.7926Z" fill="#00A24F"/>
<path d="M5.21443 0.0253906C3.82818 0.0365255 2.50194 0.690136 1.52507 1.84362C0.548193 2.99711 -3.25163e-05 4.55684 1.4465e-09 6.18254L1.4465e-09 45.9931H33.9837C35.3756 45.9909 36.7099 45.3415 37.6942 44.1873C38.6784 43.0331 39.2322 41.4683 39.2341 39.836V0.0253906H5.21443ZM30.0639 33.215L9.1702 37.643V12.9301L30.0639 8.50201V33.215Z" fill="#0060A9"/>
</g>
<defs>
<clipPath id="clip0_144_629">
<rect width="216" height="46" fill="white"/>
</clipPath>
</defs>
</svg>
