<svg width="34" height="27" viewBox="0 0 34 27" fill="none" xmlns="http://www.w3.org/2000/svg">
<path d="M31.6145 2.07474L23.9759 0C23.9759 1.50755 23.2409 2.95335 21.9327 4.01934C20.6245 5.08534 18.8501 5.68421 17 5.68421C15.1499 5.68421 13.3755 5.08534 12.0673 4.01934C10.7591 2.95335 10.0241 1.50755 10.0241 0L2.38548 2.07474C1.59613 2.28902 0.926784 2.72617 0.498249 3.30728C0.0697143 3.88838 -0.0897783 4.57517 0.0485578 5.24368L1.06006 10.1747C1.12647 10.5086 1.3368 10.8121 1.65326 11.0309C1.96972 11.2497 2.37157 11.3694 2.7866 11.3684H6.53615V25.5789C6.53615 26.3605 7.32094 27 8.28012 27H25.7199C26.6791 27 27.4639 26.3605 27.4639 25.5789V11.3684H31.2134C31.6284 11.3694 32.0303 11.2497 32.3467 11.0309C32.6632 10.8121 32.8735 10.5086 32.9399 10.1747L33.9514 5.24368C34.0898 4.57517 33.9303 3.88838 33.5018 3.30728C33.0732 2.72617 32.4039 2.28902 31.6145 2.07474Z" fill="white"/>
</svg>
