<svg width="27" height="29" viewBox="0 0 27 29" fill="none" xmlns="http://www.w3.org/2000/svg">
<path d="M7.71429 26.1362V13.05H9.77143C9.92143 13.05 10.0714 13.0681 10.2214 13.1044C10.3714 13.1406 10.5214 13.1829 10.6714 13.2312L19.575 16.965C19.875 17.0858 20.1161 17.3033 20.2982 17.6175C20.4804 17.9317 20.5714 18.2579 20.5714 18.5962C20.5714 19.1037 20.4161 19.5146 20.1054 19.8288C19.7946 20.1429 19.4357 20.3 19.0286 20.3H15.6536C15.5464 20.3 15.4661 20.294 15.4125 20.2819C15.3589 20.2698 15.2893 20.2396 15.2036 20.1912L13.1464 19.285L12.7286 20.6987L15.2036 21.6775C15.2464 21.7017 15.3107 21.7198 15.3964 21.7319C15.4821 21.744 15.5571 21.75 15.6214 21.75H24.4286C25.1143 21.75 25.7143 22.0279 26.2286 22.5837C26.7429 23.1396 27 23.8283 27 24.65L16.7464 29L7.71429 26.1362V26.1362M0 29V13.05H5.14286V29H0V29M19.2857 15.95L13.95 10.0775C13.2857 9.3525 12.7232 8.54896 12.2625 7.66687C11.8018 6.78479 11.5714 5.82417 11.5714 4.785C11.5714 3.45583 11.9839 2.32604 12.8089 1.39562C13.6339 0.465208 14.6357 0 15.8143 0C16.5 0 17.1429 0.163125 17.7429 0.489375C18.3429 0.815625 18.8571 1.25667 19.2857 1.8125C19.7143 1.25667 20.2286 0.815625 20.8286 0.489375C21.4286 0.163125 22.0714 0 22.7571 0C23.9357 0 24.9375 0.465208 25.7625 1.39562C26.5875 2.32604 27 3.45583 27 4.785C27 5.82417 26.775 6.78479 26.325 7.66687C25.875 8.54896 25.3179 9.3525 24.6536 10.0775L19.2857 15.95V15.95" fill="white"/>
</svg>
