<svg width="32" height="31" viewBox="0 0 32 31" fill="none" xmlns="http://www.w3.org/2000/svg">
<path d="M20.4444 15.0694C19.8222 15.0694 19.2963 14.8613 18.8667 14.4451C18.437 14.0289 18.2222 13.5194 18.2222 12.9167C18.2222 12.3139 18.437 11.8044 18.8667 11.3882C19.2963 10.972 19.8222 10.7639 20.4444 10.7639C21.0667 10.7639 21.5926 10.972 22.0222 11.3882C22.4519 11.8044 22.6667 12.3139 22.6667 12.9167C22.6667 13.5194 22.4519 14.0289 22.0222 14.4451C21.5926 14.8613 21.0667 15.0694 20.4444 15.0694ZM11.5556 15.0694C10.9333 15.0694 10.4074 14.8613 9.97778 14.4451C9.54815 14.0289 9.33333 13.5194 9.33333 12.9167C9.33333 12.3139 9.54815 11.8044 9.97778 11.3882C10.4074 10.972 10.9333 10.7639 11.5556 10.7639C12.1778 10.7639 12.7037 10.972 13.1333 11.3882C13.563 11.8044 13.7778 12.3139 13.7778 12.9167C13.7778 13.5194 13.563 14.0289 13.1333 14.4451C12.7037 14.8613 12.1778 15.0694 11.5556 15.0694ZM16 24.1111C14.2222 24.1111 12.6148 23.6375 11.1778 22.6903C9.74074 21.7431 8.68148 20.4944 8 18.9444H24C23.3185 20.4944 22.2593 21.7431 20.8222 22.6903C19.3852 23.6375 17.7778 24.1111 16 24.1111ZM16 31C13.7778 31 11.6963 30.591 9.75556 29.7729C7.81482 28.9549 6.12593 27.8498 4.68889 26.4576C3.25185 25.0655 2.11111 23.4294 1.26667 21.5493C0.422222 19.6692 0 17.6528 0 15.5C0 13.3472 0.422222 11.3308 1.26667 9.45069C2.11111 7.5706 3.25185 5.93449 4.68889 4.54236C6.12593 3.15023 7.81482 2.04514 9.75556 1.22708C11.6963 0.409028 13.7778 0 16 0C18.2222 0 20.3037 0.409028 22.2444 1.22708C24.1852 2.04514 25.8741 3.15023 27.3111 4.54236C28.7481 5.93449 29.8889 7.5706 30.7333 9.45069C31.5778 11.3308 32 13.3472 32 15.5C32 17.6528 31.5778 19.6692 30.7333 21.5493C29.8889 23.4294 28.7481 25.0655 27.3111 26.4576C25.8741 27.8498 24.1852 28.9549 22.2444 29.7729C20.3037 30.591 18.2222 31 16 31ZM16 27.5556C19.437 27.5556 22.3704 26.3787 24.8 24.025C27.2296 21.6713 28.4444 18.8296 28.4444 15.5C28.4444 12.1704 27.2296 9.3287 24.8 6.975C22.3704 4.6213 19.437 3.44444 16 3.44444C15.8222 3.44444 15.6444 3.44444 15.4667 3.44444C15.2889 3.44444 15.1111 3.47315 14.9333 3.53056C14.7556 3.70278 14.637 3.88935 14.5778 4.09028C14.5185 4.2912 14.4889 4.50648 14.4889 4.73611C14.4889 5.33889 14.7037 5.84838 15.1333 6.26458C15.563 6.68079 16.0889 6.88889 16.7111 6.88889C16.9778 6.88889 17.2222 6.84583 17.4444 6.75972C17.6667 6.67361 17.8963 6.63056 18.1333 6.63056C18.4889 6.63056 18.7852 6.75972 19.0222 7.01805C19.2593 7.27639 19.3778 7.57778 19.3778 7.92222C19.3778 8.58241 19.0593 9.00579 18.4222 9.19236C17.7852 9.37893 17.2148 9.47222 16.7111 9.47222C15.3778 9.47222 14.2296 9.00579 13.2667 8.07292C12.3037 7.14005 11.8222 6.02778 11.8222 4.73611C11.8222 4.65 11.8222 4.56389 11.8222 4.47778C11.8222 4.39167 11.837 4.27685 11.8667 4.13333C9.40741 4.99444 7.40741 6.44398 5.86667 8.48194C4.32593 10.5199 3.55556 12.8593 3.55556 15.5C3.55556 18.8296 4.77037 21.6713 7.2 24.025C9.62963 26.3787 12.563 27.5556 16 27.5556Z" fill="white"/>
</svg>
