<svg width="136" height="37" viewBox="0 0 136 37" fill="none" xmlns="http://www.w3.org/2000/svg">
<path d="M40.6613 9.98709L21.3253 29.3241L1.98828 9.98709L11.5593 0.4151C11.6911 0.283119 11.8478 0.178398 12.0201 0.106964C12.1925 0.0355302 12.3772 -0.0012207 12.5638 -0.0012207C12.7504 -0.0012207 12.9351 0.0355302 13.1075 0.106964C13.2798 0.178398 13.4364 0.283119 13.5683 0.4151L20.6363 7.48309L18.1363 9.98309L18.7363 10.5831C19.076 10.9229 19.4794 11.1925 19.9234 11.3764C20.3674 11.5603 20.8432 11.655 21.3238 11.655C21.8043 11.655 22.2802 11.5603 22.7242 11.3764C23.1681 11.1925 23.5715 10.9229 23.9113 10.5831L24.5113 9.98309L22.0113 7.48309L29.0793 0.4151C29.2112 0.283119 29.3677 0.178398 29.5401 0.106964C29.7125 0.0355302 29.8972 -0.0012207 30.0838 -0.0012207C30.2704 -0.0012207 30.4551 0.0355302 30.6274 0.106964C30.7998 0.178398 30.9564 0.283119 31.0883 0.4151L40.6613 9.98709Z" fill="#E4003F"/>
<path d="M23.1383 32.512L22.2703 33.38C22.0192 33.6309 21.6788 33.7719 21.3238 33.7719C20.9688 33.7719 20.6283 33.6309 20.3773 33.38L19.5093 32.512L21.3243 30.697L23.1383 32.512Z" fill="#E4003F"/>
<path d="M23.1383 9.9881C22.9 10.2265 22.617 10.4157 22.3056 10.5447C21.9942 10.6738 21.6604 10.7402 21.3233 10.7402C20.9862 10.7402 20.6524 10.6738 20.3409 10.5447C20.0295 10.4157 19.7466 10.2265 19.5083 9.9881L21.3233 8.1731L23.1383 9.9881Z" fill="#E4003F"/>
<path d="M26.3298 25.6956L22.0122 30.0132L23.8266 31.8276L28.1442 27.51L26.3298 25.6956Z" fill="#E4003F"/>
<path d="M16.3176 25.6956L14.5032 27.51L18.8208 31.8276L20.6352 30.0132L16.3176 25.6956Z" fill="#E4003F"/>
<path d="M11.3108 20.6887L9.49634 22.5032L13.8139 26.8208L15.6284 25.0063L11.3108 20.6887Z" fill="#E4003F"/>
<path d="M6.30467 15.6826L4.49023 17.4971L8.80783 21.8147L10.6223 20.0002L6.30467 15.6826Z" fill="#E4003F"/>
<path d="M5.61725 14.994L3.80225 16.809L0.364258 13.371C0.131049 13.1377 0 12.8213 0 12.4915C0 12.1616 0.131049 11.8453 0.364258 11.612L1.29926 10.677L5.61725 14.994Z" fill="#E4003F"/>
<path d="M31.3359 20.6885L27.0183 25.0061L28.8327 26.8205L33.1503 22.5029L31.3359 20.6885Z" fill="#E4003F"/>
<path d="M36.3427 15.6824L32.0251 20L33.8396 21.8144L38.1572 17.4968L36.3427 15.6824Z" fill="#E4003F"/>
<path d="M42.2853 13.369L38.8463 16.808L37.0312 14.9931L41.3492 10.675L42.2853 11.6111C42.4008 11.7264 42.4925 11.8634 42.5551 12.0143C42.6176 12.1651 42.6498 12.3268 42.6498 12.4901C42.6498 12.6533 42.6176 12.815 42.5551 12.9659C42.4925 13.1167 42.4008 13.2537 42.2853 13.369Z" fill="#E4003F"/>
<path d="M96.7747 15.8299V25.2999L93.0817 25.2419V16.4119C93.0867 15.8422 93.056 15.2728 92.9897 14.7069C92.9946 14.6765 92.9966 14.6457 92.9957 14.6149C92.9979 14.0316 92.8236 13.4613 92.4957 12.9789C92.4897 12.9729 92.4846 12.9619 92.4786 12.9559C92.4454 12.8926 92.4087 12.8312 92.3687 12.7719C92.1178 12.3955 91.7551 12.1073 91.3317 11.9479C91.2073 11.9008 91.0804 11.8604 90.9517 11.8269C90.9457 11.8209 90.9457 11.8209 90.9407 11.8209C90.659 11.7332 90.3657 11.6887 90.0707 11.6889C90.0263 11.688 89.9818 11.69 89.9377 11.6949C89.1847 11.7279 88.4735 12.0499 87.952 12.594C87.4304 13.138 87.1388 13.8623 87.1377 14.6159V25.2439H83.4507V14.7989C83.5362 13.1611 84.2253 11.613 85.385 10.4532C86.5447 9.29354 88.0928 8.60444 89.7307 8.51892C89.8407 8.51892 89.9557 8.51294 90.0707 8.51294C90.1857 8.51294 90.3006 8.51892 90.4106 8.51892C91.387 8.52681 92.3544 8.7062 93.2687 9.04892C94.0814 9.35994 94.8012 9.87353 95.3597 10.5409C95.8962 11.2195 96.2706 12.0117 96.4547 12.8569C96.6758 13.8322 96.7832 14.8299 96.7747 15.8299Z" fill="#E4003F"/>
<path d="M80.076 16.8089C80.0904 17.9805 79.9047 19.1458 79.5269 20.2549C79.194 21.2356 78.6649 22.1383 77.972 22.9079C77.2952 23.6438 76.4686 24.2262 75.5479 24.6159C74.5586 25.031 73.4947 25.2386 72.422 25.2259C71.3543 25.2397 70.2953 25.032 69.3119 24.6159C68.3971 24.2235 67.576 23.6414 66.9029 22.9079C66.2087 22.1366 65.675 21.2347 65.333 20.2549C64.9451 19.148 64.7542 17.9817 64.769 16.8089C64.7533 15.6409 64.9443 14.4794 65.333 13.3779C65.679 12.401 66.2184 11.5038 66.919 10.7399C67.5977 10.0102 68.424 9.4334 69.3429 9.0479C70.3188 8.64333 71.3666 8.44091 72.4229 8.4529C73.4857 8.44129 74.54 8.64364 75.5229 9.0479C76.4449 9.42795 77.2723 10.0055 77.9469 10.7399C78.6391 11.5073 79.173 12.4038 79.518 13.3779C79.9044 14.4798 80.0933 15.6413 80.076 16.8089ZM76.295 16.8089C76.3664 15.4765 76.0082 14.1564 75.2729 13.0429C74.9338 12.6112 74.5011 12.2622 74.0074 12.0221C73.5137 11.7821 72.9719 11.6574 72.4229 11.6574C71.874 11.6574 71.3322 11.7821 70.8385 12.0221C70.3448 12.2622 69.9121 12.6112 69.573 13.0429C68.8374 14.1562 68.4791 15.4765 68.5509 16.8089C68.4779 18.1559 68.8359 19.4911 69.573 20.6209C69.9093 21.0567 70.3411 21.4096 70.8352 21.6524C71.3293 21.8952 71.8724 22.0215 72.4229 22.0215C72.9735 22.0215 73.5166 21.8952 74.0107 21.6524C74.5048 21.4096 74.9366 21.0567 75.2729 20.6209C76.0097 19.491 76.3677 18.1559 76.295 16.8089Z" fill="#E4003F"/>
<path d="M100.402 16.8391C100.386 15.6712 100.577 14.5096 100.966 13.4081C101.313 12.4292 101.864 11.5354 102.583 10.7861C103.302 10.0522 104.17 9.48049 105.129 9.10913C106.209 8.69735 107.358 8.49541 108.514 8.51413C109.698 8.50837 110.881 8.60034 112.051 8.78913C112.965 8.93224 113.871 9.12555 114.765 9.36814V32.8051C114.765 32.8625 114.754 32.9194 114.732 32.9724C114.71 33.0254 114.677 33.0736 114.637 33.1141L111.821 35.9301C111.76 35.9912 111.682 36.0329 111.597 36.0497C111.512 36.0666 111.424 36.0579 111.345 36.0248C111.265 35.9918 111.197 35.9358 111.149 35.8639C111.101 35.792 111.075 35.7076 111.075 35.6211V24.2501C110.572 24.5036 110.047 24.7079 109.505 24.8601C107.823 25.3146 106.039 25.2021 104.428 24.5401C103.571 24.1586 102.817 23.5786 102.228 22.8481C101.613 22.0679 101.152 21.1777 100.871 20.2251C100.545 19.1264 100.387 17.9849 100.402 16.8391ZM104.183 16.9001C104.116 18.1955 104.44 19.481 105.113 20.5901C105.444 21.0531 105.888 21.4228 106.404 21.6631C106.92 21.9035 107.489 22.0065 108.056 21.9621C108.643 21.9662 109.226 21.8681 109.78 21.6721C110.238 21.5197 110.675 21.3097 111.08 21.0471V11.9291C110.813 11.8678 110.483 11.8118 110.089 11.7611C109.577 11.7043 109.063 11.679 108.548 11.6851C107.944 11.6555 107.341 11.7652 106.786 12.0057C106.231 12.2462 105.739 12.6111 105.348 13.0721C104.517 14.1692 104.104 15.5262 104.183 16.9001Z" fill="#E4003F"/>
<path d="M133.444 16.8089C133.459 17.9804 133.273 19.1457 132.896 20.2549C132.563 21.2355 132.034 22.1382 131.341 22.9079C130.664 23.6439 129.837 24.2263 128.916 24.6159C127.927 25.031 126.863 25.2386 125.79 25.2259C124.722 25.2396 123.663 25.0319 122.68 24.6159C121.765 24.2235 120.944 23.6414 120.271 22.9079C119.577 22.1366 119.043 21.2347 118.701 20.2549C118.313 19.148 118.122 17.9817 118.137 16.8089C118.121 15.6409 118.312 14.4794 118.701 13.3779C119.047 12.4009 119.586 11.5037 120.287 10.7399C120.966 10.0102 121.792 9.43334 122.711 9.04789C123.687 8.6434 124.735 8.44099 125.791 8.45289C126.852 8.44196 127.905 8.6443 128.886 9.04789C129.808 9.42793 130.636 10.0055 131.311 10.7399C132.003 11.5073 132.537 12.4038 132.882 13.3779C133.27 14.4796 133.46 15.6411 133.444 16.8089ZM129.663 16.8089C129.735 15.4765 129.376 14.1563 128.641 13.0429C128.302 12.611 127.869 12.2618 127.376 12.0217C126.882 11.7815 126.34 11.6568 125.791 11.6568C125.242 11.6568 124.7 11.7815 124.206 12.0217C123.713 12.2618 123.28 12.611 122.941 13.0429C122.205 14.1562 121.847 15.4765 121.919 16.8089C121.846 18.1559 122.204 19.4912 122.941 20.6209C123.277 21.0567 123.709 21.4096 124.203 21.6524C124.697 21.8952 125.241 22.0215 125.791 22.0215C126.342 22.0215 126.885 21.8952 127.379 21.6524C127.873 21.4096 128.305 21.0567 128.641 20.6209C129.378 19.4911 129.736 18.156 129.663 16.8089Z" fill="#E4003F"/>
<path d="M60.463 17.373C60.0176 16.9418 59.5083 16.5818 58.9531 16.3059C58.2306 15.9424 57.4873 15.6218 56.7271 15.346C56.2706 15.1918 55.8227 15.0135 55.3851 14.812C55.0728 14.6713 54.7764 14.4976 54.5011 14.2939C54.299 14.1482 54.1364 13.9543 54.028 13.73C53.9338 13.5113 53.8871 13.2751 53.8911 13.037C53.8861 12.811 53.9401 12.5877 54.0478 12.389C54.1555 12.1903 54.3131 12.0232 54.5051 11.904C55.0936 11.5902 55.7559 11.4412 56.4221 11.473C57.1619 11.4625 57.9003 11.5394 58.6221 11.702C59.0379 11.7994 59.4473 11.9223 59.848 12.0699C59.9507 12.1066 60.0617 12.1131 60.168 12.0888C60.2743 12.0646 60.3715 12.0105 60.4481 11.933L62.0101 10.3759C62.058 10.3281 62.094 10.2697 62.1154 10.2055C62.1367 10.1412 62.1428 10.0729 62.1331 10.0059C62.1234 9.93889 62.0981 9.87506 62.0594 9.81952C62.0207 9.76398 61.9696 9.71824 61.9101 9.68595C61.5719 9.49324 61.2146 9.33608 60.8441 9.21695C60.2173 9.0019 59.5751 8.83476 58.9231 8.71695C58.0392 8.54153 57.1401 8.45476 56.239 8.45795C54.6746 8.37208 53.127 8.81792 51.848 9.72296C51.3216 10.1287 50.9002 10.6547 50.619 11.2569C50.3379 11.8591 50.2052 12.5199 50.2321 13.184C50.2131 13.837 50.3327 14.4866 50.5831 15.09C50.8068 15.5948 51.1342 16.047 51.5441 16.417C51.98 16.8028 52.4673 17.1262 52.9921 17.378C53.5927 17.6701 54.2086 17.9298 54.8371 18.1559C55.6686 18.4322 56.4624 18.8112 57.2001 19.284C57.4196 19.4252 57.6001 19.6192 57.7254 19.8482C57.8506 20.0772 57.9165 20.3339 57.9171 20.5949C57.9352 20.8387 57.8812 21.0824 57.7619 21.2958C57.6426 21.5091 57.4632 21.6827 57.2461 21.795C56.5701 22.0705 55.8407 22.1902 55.1121 22.145C54.2337 22.1584 53.3574 22.0575 52.5051 21.8449C52.1522 21.7581 51.8115 21.6274 51.491 21.456C51.382 21.4025 51.259 21.3844 51.1392 21.4043C51.0195 21.4242 50.9089 21.4811 50.8231 21.567L49.1311 23.2589C49.0837 23.3059 49.0478 23.363 49.026 23.426C49.0042 23.489 48.9971 23.5562 49.0053 23.6223C49.0135 23.6885 49.0368 23.7519 49.0733 23.8077C49.1099 23.8634 49.1587 23.91 49.2161 23.9439C49.4328 24.0771 49.6606 24.1912 49.8971 24.2849C50.4864 24.5054 51.0873 24.6937 51.697 24.849C52.8056 25.1111 53.9433 25.229 55.082 25.2C56.7748 25.3038 58.4595 24.8947 59.916 24.0259C60.4709 23.6422 60.9179 23.1224 61.2143 22.5165C61.5107 21.9105 61.6467 21.2385 61.6091 20.5649C61.623 19.9437 61.5299 19.3247 61.3341 18.735C61.1491 18.2216 60.8514 17.7562 60.463 17.373Z" fill="#E4003F"/>
<path d="M120.466 29.813C120.894 29.7865 121.321 29.8877 121.692 30.104C121.835 30.2065 121.949 30.3442 122.024 30.5037C122.099 30.6633 122.131 30.8393 122.118 31.015C122.123 31.2056 122.084 31.3949 122.004 31.568C121.929 31.7206 121.815 31.8504 121.673 31.944C121.511 32.0481 121.331 32.121 121.143 32.159C120.908 32.207 120.668 32.2299 120.429 32.227H120.095V33.519H119.428V29.903C119.598 29.8658 119.77 29.8421 119.944 29.832C120.133 29.8193 120.307 29.813 120.466 29.813ZM120.514 30.39C120.344 30.39 120.205 30.3953 120.095 30.406V31.655H120.418C120.672 31.6682 120.926 31.622 121.159 31.52C121.247 31.4693 121.319 31.394 121.365 31.3032C121.411 31.2124 121.429 31.1101 121.418 31.009C121.421 30.9047 121.397 30.8013 121.349 30.709C121.304 30.6289 121.239 30.5627 121.159 30.518C121.069 30.4684 120.971 30.4346 120.87 30.418C120.752 30.3985 120.633 30.3891 120.514 30.39Z" fill="#E4003F"/>
<path d="M123.785 33.519V29.8521H126.141V30.419H124.452V31.3191H125.952V31.8751H124.452V32.9521H126.268V33.518L123.785 33.519Z" fill="#E4003F"/>
<path d="M128.957 29.813C129.382 29.7863 129.805 29.8877 130.172 30.104C130.326 30.2259 130.445 30.387 130.516 30.5704C130.587 30.7539 130.607 30.953 130.575 31.147C130.543 31.341 130.459 31.5228 130.333 31.6736C130.207 31.8243 130.042 31.9384 129.857 32.004C129.924 32.086 130 32.184 130.084 32.304C130.168 32.424 130.255 32.546 130.343 32.682C130.431 32.818 130.516 32.957 130.597 33.1C130.678 33.243 130.751 33.383 130.815 33.521H130.068C130.001 33.3937 129.929 33.2657 129.851 33.137C129.773 33.0084 129.694 32.883 129.615 32.761C129.535 32.6397 129.457 32.525 129.38 32.417C129.302 32.309 129.23 32.217 129.162 32.128C129.113 32.128 129.071 32.133 129.035 32.133H128.612V33.52H127.945V29.904C128.116 29.8677 128.289 29.844 128.464 29.833C128.648 29.8197 128.812 29.813 128.957 29.813ZM129.005 30.39C128.863 30.39 128.733 30.3953 128.613 30.406V31.592H128.904C129.047 31.5933 129.191 31.5842 129.333 31.565C129.441 31.551 129.547 31.5171 129.643 31.465C129.722 31.423 129.788 31.3587 129.831 31.28C129.877 31.1871 129.899 31.0838 129.895 30.98C129.898 30.8808 129.876 30.7824 129.831 30.694C129.789 30.616 129.725 30.5516 129.648 30.508C129.56 30.4585 129.464 30.4246 129.365 30.408C129.245 30.3916 129.125 30.3856 129.005 30.39Z" fill="#E4003F"/>
<path d="M133.806 33.5981C133.586 33.6035 133.366 33.5668 133.16 33.4901C132.99 33.4254 132.837 33.3228 132.713 33.1901C132.593 33.0571 132.504 32.8998 132.451 32.7291C132.393 32.5406 132.364 32.3443 132.366 32.1471V29.8521H133.038V32.0811C133.035 32.2254 133.054 32.3694 133.094 32.5081C133.125 32.6147 133.179 32.7132 133.253 32.7961C133.32 32.869 133.403 32.9252 133.496 32.9601C133.597 32.9966 133.703 33.0146 133.811 33.0131C133.919 33.0145 134.027 32.9965 134.129 32.9601C134.223 32.9256 134.307 32.8694 134.375 32.7961C134.448 32.713 134.502 32.6146 134.533 32.5081C134.573 32.3694 134.592 32.2254 134.589 32.0811V29.8521H135.261V32.144C135.263 32.3415 135.233 32.538 135.173 32.726C135.118 32.8967 135.028 33.0537 134.908 33.187C134.782 33.3207 134.627 33.4234 134.455 33.4871C134.247 33.5643 134.027 33.6019 133.806 33.5981Z" fill="#E4003F"/>
</svg>
