<svg width="30" height="21" viewBox="0 0 30 21" fill="none" xmlns="http://www.w3.org/2000/svg">
<path d="M22.5 0.799805H6.5C5.12 0.799805 4 1.81314 4 3.06171V17.5379C4 18.7865 5.12 19.7998 6.5 19.7998H22.5C23.88 19.7998 25 18.7865 25 17.5379V3.06171C25 1.81314 23.88 0.799805 22.5 0.799805ZM10.5 8.0379V16.6331H7.5V8.0379H10.5ZM7.5 5.53623C7.5 4.9029 8.1 4.41885 9 4.41885C9.9 4.41885 10.465 4.9029 10.5 5.53623C10.5 6.16957 9.94 6.68076 9 6.68076C8.1 6.68076 7.5 6.16957 7.5 5.53623ZM21.5 16.6331H18.5C18.5 16.6331 18.5 12.4441 18.5 12.1093C18.5 11.2046 18 10.2998 16.75 10.2817H16.71C15.5 10.2817 15 11.2136 15 12.1093C15 12.521 15 16.6331 15 16.6331H12V8.0379H15V9.196C15 9.196 15.965 8.0379 17.905 8.0379C19.89 8.0379 21.5 9.2729 21.5 11.7746V16.6331Z" fill="currentcolor"/>
</svg>
