<svg width="210" height="165" viewBox="0 0 210 165" fill="none" xmlns="http://www.w3.org/2000/svg">
<path d="M199.828 48.6816L104.802 142.927L9.77124 48.6816L56.8074 2.02909C57.4555 1.38583 58.2253 0.875435 59.0723 0.527277C59.9194 0.179118 60.8271 0 61.744 0C62.6609 0 63.569 0.179118 64.416 0.527277C65.2631 0.875435 66.0326 1.38583 66.6807 2.02909L101.416 36.4774L89.1299 48.6621L92.0784 51.5864C93.7482 53.2427 95.7307 54.5565 97.9125 55.4529C100.094 56.3493 102.433 56.8106 104.795 56.8106C107.156 56.8106 109.495 56.3493 111.677 55.4529C113.859 54.5565 115.841 53.2427 117.511 51.5864L120.459 48.6621L108.173 36.4774L142.909 2.02909C143.557 1.38583 144.326 0.875435 145.173 0.527277C146.02 0.179118 146.928 0 147.845 0C148.762 0 149.67 0.179118 150.517 0.527277C151.364 0.875435 152.134 1.38583 152.782 2.02909L199.828 48.6816Z" fill="#E4003F"/>
<path d="M113.712 158.465L109.446 162.695C108.212 163.918 106.539 164.605 104.795 164.605C103.05 164.605 101.377 163.918 100.143 162.695L95.8773 158.465L104.797 149.619L113.712 158.465Z" fill="#E4003F"/>
<path d="M113.712 48.6864C112.541 49.8485 111.15 50.7704 109.62 51.3994C108.089 52.0284 106.449 52.3522 104.792 52.3522C103.135 52.3522 101.495 52.0284 99.9643 51.3994C98.4338 50.7704 97.0434 49.8485 95.8723 48.6864L104.792 39.8403L113.712 48.6864Z" fill="#E4003F"/>
<path d="M129.396 125.242L108.178 146.286L117.095 155.129L138.313 134.086L129.396 125.242Z" fill="#E4003F"/>
<path d="M80.1917 125.243L71.2748 134.086L92.4934 155.129L101.41 146.286L80.1917 125.243Z" fill="#E4003F"/>
<path d="M55.5861 100.84L46.6692 109.683L67.8878 130.726L76.8048 121.883L55.5861 100.84Z" fill="#E4003F"/>
<path d="M30.984 76.4409L22.067 85.2842L43.2856 106.327L52.2026 97.4842L30.984 76.4409Z" fill="#E4003F"/>
<path d="M27.6057 73.0843L18.686 81.9304L1.79013 65.1741C0.644033 64.0371 0 62.4952 0 60.8875C0 59.2798 0.644033 57.738 1.79013 56.601L6.38513 52.0439L27.6057 73.0843Z" fill="#E4003F"/>
<path d="M153.999 100.839L132.78 121.882L141.697 130.725L162.916 109.682L153.999 100.839Z" fill="#E4003F"/>
<path d="M178.604 76.4396L157.386 97.4829L166.303 106.326L187.521 85.2829L178.604 76.4396Z" fill="#E4003F"/>
<path d="M207.809 65.1648L190.908 81.926L181.989 73.0801L203.209 52.0347L207.809 56.5966C208.377 57.1589 208.828 57.8266 209.135 58.5617C209.442 59.2969 209.601 60.0849 209.601 60.8807C209.601 61.6766 209.442 62.4646 209.135 63.1997C208.828 63.9348 208.377 64.6026 207.809 65.1648Z" fill="#E4003F"/>
</svg>
