<svg width="43" height="34" viewBox="0 0 43 34" fill="none" xmlns="http://www.w3.org/2000/svg">
<path d="M40.6613 9.98831L21.3253 29.3253L1.98828 9.98831L11.5593 0.416321C11.6911 0.284339 11.8478 0.179619 12.0201 0.108185C12.1925 0.0367509 12.3772 0 12.5638 0C12.7504 0 12.9351 0.0367509 13.1075 0.108185C13.2798 0.179619 13.4364 0.284339 13.5683 0.416321L20.6363 7.48431L18.1363 9.98431L18.7363 10.5843C19.076 10.9241 19.4794 11.1937 19.9234 11.3776C20.3674 11.5615 20.8432 11.6562 21.3238 11.6562C21.8043 11.6562 22.2802 11.5615 22.7242 11.3776C23.1681 11.1937 23.5715 10.9241 23.9113 10.5843L24.5113 9.98431L22.0113 7.48431L29.0793 0.416321C29.2112 0.284339 29.3677 0.179619 29.5401 0.108185C29.7125 0.0367509 29.8972 0 30.0838 0C30.2704 0 30.4551 0.0367509 30.6274 0.108185C30.7998 0.179619 30.9564 0.284339 31.0883 0.416321L40.6613 9.98831Z" fill="currentColor"/>
<path d="M23.1383 32.5132L22.2703 33.3812C22.0192 33.6321 21.6788 33.7731 21.3238 33.7731C20.9688 33.7731 20.6283 33.6321 20.3773 33.3812L19.5093 32.5132L21.3243 30.6982L23.1383 32.5132Z" fill="currentColor"/>
<path d="M23.1383 9.98932C22.9 10.2278 22.617 10.4169 22.3056 10.546C21.9942 10.675 21.6604 10.7415 21.3233 10.7415C20.9862 10.7415 20.6524 10.675 20.3409 10.546C20.0295 10.4169 19.7466 10.2278 19.5083 9.98932L21.3233 8.17432L23.1383 9.98932Z" fill="currentColor"/>
<path d="M26.3298 25.6968L22.0122 30.0144L23.8266 31.8288L28.1442 27.5112L26.3298 25.6968Z" fill="currentColor"/>
<path d="M16.3176 25.6968L14.5032 27.5112L18.8208 31.8288L20.6352 30.0144L16.3176 25.6968Z" fill="currentColor"/>
<path d="M11.3108 20.69L9.49634 22.5044L13.8139 26.822L15.6284 25.0076L11.3108 20.69Z" fill="currentColor"/>
<path d="M6.30467 15.6839L4.49023 17.4983L8.80783 21.8159L10.6223 20.0014L6.30467 15.6839Z" fill="currentColor"/>
<path d="M5.61725 14.9952L3.80225 16.8102L0.364258 13.3722C0.131049 13.1389 0 12.8226 0 12.4927C0 12.1628 0.131049 11.8465 0.364258 11.6132L1.29926 10.6782L5.61725 14.9952Z" fill="currentColor"/>
<path d="M31.3359 20.6897L27.0183 25.0073L28.8327 26.8218L33.1503 22.5042L31.3359 20.6897Z" fill="currentColor"/>
<path d="M36.3427 15.6836L32.0251 20.0012L33.8396 21.8157L38.1572 17.4981L36.3427 15.6836Z" fill="currentColor"/>
<path d="M42.2853 13.3703L38.8463 16.8093L37.0312 14.9943L41.3492 10.6763L42.2853 11.6123C42.4008 11.7276 42.4925 11.8646 42.5551 12.0155C42.6176 12.1663 42.6498 12.328 42.6498 12.4913C42.6498 12.6546 42.6176 12.8162 42.5551 12.9671C42.4925 13.1179 42.4008 13.2549 42.2853 13.3703Z" fill="currentColor"/>
</svg>
